<svg width="29" height="20" viewBox="0 0 29 20" fill="none" xmlns="http://www.w3.org/2000/svg">
<path d="M27.9063 3.12273C27.5799 1.89545 26.6141 0.927273 25.3855 0.595455C23.1638 2.16744e-07 14.2501 0 14.2501 0C14.2501 0 5.34097 2.16744e-07 3.11481 0.595455C1.89065 0.922728 0.924921 1.89091 0.593944 3.12273C0 5.35 0 10 0 10C0 10 0 14.65 0.593944 16.8773C0.920387 18.1045 1.88611 19.0727 3.11481 19.4045C5.34097 20 14.2501 20 14.2501 20C14.2501 20 23.1638 20 25.3855 19.4045C26.6096 19.0773 27.5753 18.1091 27.9063 16.8773C28.5003 14.65 28.5003 10 28.5003 10C28.5003 10 28.5003 5.35 27.9063 3.12273Z" fill="#FF3000"/>
<path d="M11.4028 14.2864L18.8067 10L11.4028 5.71364V14.2864Z" fill="white"/>
</svg>
